<?xml version="1.0" encoding="UTF-8" standalone="no"?>
<svg
   xmlns:dc="http://purl.org/dc/elements/1.1/"
   xmlns:cc="http://creativecommons.org/ns#"
   xmlns:rdf="http://www.w3.org/1999/02/22-rdf-syntax-ns#"
   xmlns:svg="http://www.w3.org/2000/svg"
   xmlns="http://www.w3.org/2000/svg"
   viewBox="0 0 560 397.33334"
   height="397.33334"
   width="560"
   xml:space="preserve"
   id="svg2"
   version="1.1"><metadata
     id="metadata8"><rdf:RDF><cc:Work
         rdf:about=""><dc:format>image/svg+xml</dc:format><dc:type
           rdf:resource="http://purl.org/dc/dcmitype/StillImage" /></cc:Work></rdf:RDF></metadata><defs
     id="defs6" /><g
     transform="matrix(1.3333333,0,0,-1.3333333,0,397.33333)"
     id="g10"><g
       transform="scale(0.1)"
       id="g12"><path
         id="path14"
         style="fill:#323b96;fill-opacity:1;fill-rule:nonzero;stroke:none"
         d="m 113.387,1533.63 v 567.73 h 537.492 c 50.539,0 92.656,-2.37 126.355,-7.1 33.696,-4.74 60.746,-12.67 81.161,-23.8 20.406,-11.13 34.988,-25.74 43.738,-43.83 8.742,-18.08 13.117,-40.49 13.117,-67.21 0,-40.07 -8.094,-69.71 -24.297,-88.91 -16.199,-19.2 -38.879,-32.42 -68.039,-39.66 v -2.5 c 36.938,-5.57 65.125,-18.79 84.563,-39.66 19.437,-20.87 29.156,-51.35 29.156,-91.42 0,-32.29 -4.695,-58.86 -14.09,-79.73 -9.398,-20.88 -23.813,-37.58 -43.254,-50.09 -19.437,-12.53 -43.902,-21.29 -73.383,-26.31 -29.484,-5.01 -64.636,-7.51 -105.457,-7.51 z m 553.043,121.06 c 29.808,0 50.218,4.73 61.234,14.19 11.012,9.46 16.524,23.94 16.524,43.42 0,20.59 -5.672,35.2 -17.008,43.83 -11.34,8.62 -31.59,12.94 -60.75,12.94 H 307.777 v -114.38 z m -4.86,222.92 c 20.735,0 36.614,3.75 47.625,11.27 11.016,7.51 16.524,21.28 16.524,41.32 0,21.15 -5.508,35.48 -16.524,43 -11.011,7.51 -26.89,11.27 -47.625,11.27 H 307.777 V 1877.61 Z M 1444,1526.95 c -81,0 -147.42,2.93 -199.25,8.77 -51.84,5.84 -92.66,16.42 -122.47,31.73 -29.81,15.3 -50.22,36.45 -61.23,63.45 -11.02,26.99 -16.53,61.64 -16.53,103.94 v 366.52 h 196.34 v -312.25 c 0,-28.95 1.94,-52.04 5.83,-69.3 3.89,-17.26 12.96,-30.47 27.21,-39.66 14.26,-9.18 34.99,-15.17 62.21,-17.94 27.21,-2.79 63.82,-4.18 109.83,-4.18 h 16.52 c 46.01,0 82.62,1.53 109.83,4.59 27.21,3.06 47.79,9.18 61.72,18.37 13.94,9.18 23.01,22.4 27.22,39.66 4.21,17.25 6.32,40.07 6.32,68.46 v 312.25 h 196.33 v -366.52 c 0,-42.3 -5.34,-76.95 -16.04,-103.94 -10.69,-27 -30.77,-48.15 -60.26,-63.45 -29.48,-15.31 -70.14,-25.89 -121.98,-31.73 -51.83,-5.84 -118.9,-8.77 -201.19,-8.77 z m 1625.11,6.68 h -192.45 v 422.46 h -2.92 l -265.33,-422.46 h -151.63 l -263.4,422.46 h -2.92 v -422.46 h -192.45 v 567.73 h 293.53 l 243,-392.4 h 2.91 l 238.13,392.4 h 293.53 z m 1012.78,0 h -293.53 l -386.84,424.96 h -3.89 v -424.96 h -192.45 v 567.73 h 298.39 l 381.98,-424.97 h 3.89 v 424.97 h 192.45 v -567.73" /><path
         id="path16"
         style="fill:#ed1c24;fill-opacity:1;fill-rule:nonzero;stroke:none"
         d="m 582.602,1399.34 c 2.687,0.46 5.894,1.13 9.636,1.94 3.739,0.81 7.41,1.56 11.078,2.31 3.668,0.75 6.668,1.14 9.161,1.2 2.878,0.07 4.613,-0.15 5.293,-0.67 l -55.637,-121.51 99.125,9.51 c 4.711,10.56 11.301,23.34 19.781,38.28 8.492,14.88 17.461,29.64 26.836,44.21 9.453,14.57 16.91,24.99 22.355,31.33 0.575,0.54 1.946,0.83 4.2,0.89 3.039,0.07 6.797,-0.04 11.117,-0.4 4.406,-0.36 6.855,-0.64 7.336,-0.76 0.672,0.28 2.09,0.91 4.254,1.88 2.086,0.98 4.765,1.5 7.957,1.58 3.344,0.07 6.332,-0.18 8.969,-0.79 L 642.305,1112.27 c -3.442,0.85 -6.266,1.77 -8.629,2.78 -2.285,1.07 -4.278,2.21 -6.039,3.43 -1.684,1.22 -3.336,2.17 -4.957,2.79 -1.387,0.57 -5.063,1.41 -10.934,2.46 -5.953,0.98 -10.664,2.07 -14.211,3.18 -3.469,1.17 -5.41,2.58 -5.73,4.23 0.968,11.33 3.039,21.76 6.211,31.35 3.086,9.6 7.695,20.35 13.742,32.4 6.043,12.04 11.133,21.95 15.265,29.71 4.204,7.84 7.969,16.12 11.301,24.93 -0.472,-0.01 -9.129,-0.81 -26.121,-2.46 -17.004,-1.58 -32.82,-3.34 -47.461,-5.13 -14.633,-1.87 -22.617,-3.11 -23.953,-3.8 -0.953,-0.62 -2.91,-3.64 -5.812,-8.93 -2.899,-5.29 -6.989,-13.52 -12.184,-24.69 -5.191,-11.16 -10.625,-23.06 -16.379,-35.68 -5.754,-12.57 -15.258,-33.63 -28.59,-63.16 -3.683,0.18 -7.109,0.89 -10.363,2.2 -3.246,1.25 -6.941,3.08 -11.012,5.57 -3.988,2.42 -6.886,4.07 -8.449,4.9 -0.832,0.51 -4.309,1.68 -10.488,3.45 -6.266,1.78 -9.567,3.55 -10.043,5.19 3.441,10 7.179,20.14 11.215,30.42 4.046,10.21 7.972,19.23 11.718,26.99 3.664,7.75 8.016,16.45 12.973,26.09 4.969,9.57 10.133,19.47 15.5,29.72 -1.496,3.2 -3.789,8.17 -6.742,15.05 -2.949,6.81 -5.024,11.92 -6.063,15.27 6.192,2.06 11.957,3.65 17.309,4.76 5.355,1.05 9.336,1.81 11.875,2.13 4.516,5.53 9.711,14.38 15.734,26.62 6.028,12.17 13.106,26.36 21.301,42.55 8.207,16.12 17.895,33.02 29.063,50.73 0.828,0.29 2.636,0.92 5.351,1.85 2.789,0.99 5,1.5 6.863,1.55 2.727,0.06 5.739,-0.4 9.036,-1.38 z m 314.093,-86.35 c 0.809,1.21 2.516,2.9 5.016,5.21 2.5,2.24 4.113,4.06 4.68,5.4 8.875,0.2 16.136,0.11 22.027,-0.28 4.281,0.09 7.371,-0.36 9.262,-1.37 1.972,-0.95 3.144,-1.79 3.679,-2.43 l -87.757,-202.34 c -1.321,-0.82 -2.836,-1.26 -4.473,-1.3 -1.242,-0.02 -2.984,0.2 -5.215,0.67 -2.23,0.48 -4.152,0.97 -5.621,1.59 -1.543,0.63 -3.41,1.32 -5.586,1.99 -1.684,-0.3 -4.629,-1.23 -8.988,-2.92 -4.36,-1.62 -7.391,-2.49 -9.262,-2.53 -2.723,-0.06 -4.164,1.09 -4.398,3.4 -0.465,4.62 3.109,13.3 10.879,26.05 -4.09,-5.12 -11.926,-10.99 -23.59,-17.54 -11.594,-6.49 -21.461,-10.75 -29.7,-12.6 -2.984,-0.6 -5.601,-0.92 -7.937,-0.98 -5.914,-0.13 -12.324,0.78 -19.231,2.73 -6.914,2.02 -12.972,4.86 -18.191,8.64 -5.137,3.78 -8.273,7.81 -9.34,12.21 -1.957,4.72 -3.25,9.85 -3.808,15.39 -0.926,9.17 0.679,19.59 4.894,31.19 4.129,11.67 12.293,25.88 24.488,42.7 17.094,23.93 38.204,44.4 63.243,61.44 25.043,17.05 51.144,25.86 78.386,26.49 5.368,0.12 10.856,-0.15 16.543,-0.81 z m -16.507,-30.54 c -18.383,-2.61 -37.418,-11.91 -57.192,-27.84 -19.769,-15.93 -35.879,-34.1 -48.273,-54.36 -12.465,-20.32 -18.016,-37.25 -16.653,-50.77 8.766,0.47 17.121,2.71 25.071,6.66 7.941,4.03 15.285,9.36 22.113,15.93 6.742,6.63 12.699,13.32 17.637,20.04 4.933,6.8 11.125,15.8 18.57,27.09 21.797,33.04 34.723,54.17 38.727,63.25 z m 269.122,152.79 c 3.33,1.79 5.8,2.84 7.24,3.28 1.51,0.43 3.27,0.8 5.26,1.18 1.99,0.37 5.04,1.03 9.1,1.85 2.35,0.59 4.43,0.9 6.29,0.95 4.21,0.1 7.99,-0.28 11.27,-1.13 3.28,-0.78 5.51,-1.99 6.52,-3.49 l -133.12,-318.25 c -2.41,-0.06 -4.96,0.48 -7.57,1.61 -2.61,1.13 -5.25,2.59 -7.77,4.38 -2.53,1.79 -4.77,3.2 -6.68,4.34 -8.72,-0.2 -13.8,0.74 -15.42,2.82 0.23,2.32 0.62,4.65 1.02,6.9 0.48,2.26 1.17,4.66 2.01,7.12 0.92,2.54 1.76,5 2.61,7.41 0.78,2.4 1.34,5.32 1.63,8.7 -31.09,-31.34 -57.575,-47.3 -79.286,-47.8 -16.266,-0.38 -29.316,8.38 -39.223,26.2 -2.222,4.24 -3.699,9.64 -4.359,16.16 -1.531,15.24 1.586,33.11 9.43,53.59 7.84,20.55 20.316,40.74 37.347,60.65 17.028,19.9 38.313,36.33 63.761,49.35 25.53,12.96 54.56,19.85 87.09,20.6 z m -60.9,-127.39 c -24.54,-4.21 -46.95,-14.91 -67.05,-32.11 -20.12,-17.19 -35.817,-36.34 -47.059,-57.23 -11.305,-20.96 -16.332,-37.67 -15.078,-50.15 0.504,-5.01 1.953,-8.54 4.257,-10.54 7.317,0.17 15.407,3.53 24.344,10.02 8.938,6.55 16.676,13.41 23.126,20.64 6.52,7.22 14.32,16.53 23.48,27.86 9.16,11.25 15.38,18.54 18.71,21.86 4.86,9.03 11.49,21.48 19.88,37.35 8.38,15.93 13.46,26.7 15.39,32.3 z m 139.27,31.53 c -4.61,4.66 -7.23,10.55 -7.94,17.61 -0.79,7.85 0.96,15.3 5.26,22.21 4.37,6.98 10.28,11.75 17.74,14.36 l 7.39,0.97 c 12.96,-1.55 19.92,-7.28 20.94,-17.37 0.55,-5.41 -0.82,-11.2 -4.1,-17.36 -3.21,-6.09 -7.67,-11.35 -13.33,-15.58 -5.66,-4.29 -11.29,-6.48 -16.89,-6.6 -2.88,-0.07 -5.9,0.51 -9.07,1.76 z m -23.33,-122.47 c -3.78,-9.75 -6.59,-17.42 -8.62,-22.89 -1.94,-5.47 -4.43,-12.53 -7.46,-21.13 -2.95,-8.67 -6.21,-17.41 -9.7,-26.09 -3.41,-8.73 -6.55,-16.35 -9.27,-22.69 -2.04,-0.58 -3.49,-0.88 -4.19,-0.89 -4.13,-0.09 -8.79,1.25 -14.07,4.1 -5.2,2.86 -9.54,5.73 -13.04,8.62 -12.24,4.61 -18.64,10.08 -19.28,16.42 10.35,22.73 23.82,50.08 40.42,82.08 5.74,11.11 12.25,23.23 19.44,36.29 7.18,13.13 12.97,23.05 17.36,29.77 4.31,6.77 7.35,10.68 9.04,11.71 1.32,0.83 2.92,1.26 4.71,1.3 1.63,0.04 4.01,-0.37 6.98,-1.16 2.97,-0.86 5.2,-1.27 6.77,-1.37 1.79,0.05 4.3,0.64 7.54,1.77 3.23,1.2 5.91,1.79 8.09,1.84 2.41,0.05 4.45,-0.89 6.2,-2.77 -1.98,-4.27 -5.56,-12.16 -10.65,-23.59 -5.09,-11.43 -10.66,-24.32 -16.77,-38.74 -6.12,-14.43 -10.57,-25.25 -13.5,-32.58 z m 127.73,74.91 c 8.18,7.13 20.73,15.69 37.84,25.54 17.02,9.92 30.26,16.37 39.54,19.44 3.15,-0.99 5.46,-2.26 6.86,-3.82 1.48,-1.55 2.69,-3.44 3.53,-5.6 0.92,-2.16 2.12,-4.84 3.46,-8.05 0.75,-1.18 2.39,-2.79 4.87,-4.92 2.47,-2.12 4.28,-3.86 5.43,-5.16 1.15,-1.36 1.75,-2.68 1.88,-3.93 0.15,-1.57 -0.04,-2.71 -0.58,-3.51 -25.27,-10.91 -44.39,-19.42 -57.41,-25.61 -13.04,-6.18 -24.84,-12.93 -35.33,-20.25 -10.58,-7.32 -18.94,-14.99 -25.15,-23 -9.16,-15.16 -24.16,-50.56 -45.18,-106.06 -5.96,0.39 -10.89,1.99 -14.76,4.88 -3.88,2.88 -6.47,5.27 -7.9,7.15 -1.53,1.22 -4.29,2.35 -8.45,3.31 -4.14,0.9 -6.71,1.56 -7.61,2 -0.98,0.45 -1.57,1.62 -1.76,3.54 1.44,6.64 4.32,17.49 8.58,32.6 4.33,15.11 10.27,32.77 17.98,53.05 6.07,15.62 13.89,34.12 23.36,55.5 9.56,21.31 14.49,32.01 14.95,32.02 2.04,1.44 4.3,2.22 6.87,2.27 2.33,0.06 4.75,0.11 7.4,0.11 2.73,0 5.86,-0.06 9.53,-0.11 1.37,0.3 4.26,1.82 8.82,4.64 4.48,2.75 8.47,4.16 11.82,4.24 2.56,0.06 5.12,-0.48 7.64,-1.54 -4.12,-8.63 -9.52,-21.59 -16.23,-38.73 z M 1521,1156.41 c -3.56,5.07 -5.73,11.17 -6.45,18.36 -1.45,14.38 2.57,31.74 12.16,51.93 9.51,20.26 20.92,39.43 34.06,57.66 13.23,18.16 26.16,34.67 38.8,49.31 1.79,0.83 3.62,1.27 5.64,1.32 2.57,0.06 5.59,-0.47 9.14,-1.64 3.55,-1.17 5.88,-1.85 6.99,-1.96 1.47,0.04 4,0.49 7.58,1.37 3.58,0.88 6.26,1.33 8.13,1.38 3.19,0.07 5.5,-1.19 7,-3.74 -17.11,-26.85 -30.3,-47.65 -39.52,-62.28 -9.28,-14.7 -16.84,-27.18 -22.74,-37.49 -5.91,-10.26 -10.29,-18.83 -13.09,-25.77 -2.82,-6.88 -3.98,-12.46 -3.54,-16.74 0.27,-2.71 1.29,-5.07 2.97,-7.08 10.22,1.5 20.71,6.57 31.55,15.15 10.76,8.58 24.49,23.32 41.2,44.14 16.78,20.82 38.23,50.22 64.61,88.12 1.78,2.49 4.3,3.81 7.64,3.89 2.26,0.05 5.51,-0.54 9.85,-1.76 4.33,-1.22 7.52,-1.81 9.7,-1.76 2.1,0.05 4.96,1.04 8.43,2.97 3.55,1.94 6.34,2.93 8.28,2.98 2.34,0.05 4.54,-0.89 6.68,-2.76 l -84.23,-198.62 c -3.5,-0.08 -5.88,0.26 -7.28,1.02 -1.32,0.7 -2.85,1.92 -4.35,3.67 -1.57,1.68 -2.94,2.9 -4.27,3.67 -1.16,0.77 -4.12,1.42 -9.02,2.11 -4.83,0.68 -7.37,1.87 -7.56,3.72 -0.63,6.34 0.14,13.36 2.33,21.08 2.18,7.79 3.47,12.85 3.84,15.3 -1.5,-0.63 -5.74,-4.16 -12.74,-10.55 -7.09,-6.37 -13.98,-12.29 -20.77,-17.67 -6.79,-5.38 -14.8,-10.33 -24,-14.97 -9.21,-4.58 -18.18,-6.97 -26.82,-7.17 -15.49,-0.36 -28.89,7.26 -40.2,22.81 z m 358.59,-13.11 c -3.81,-0.09 -7.05,1.09 -9.71,3.55 -2.67,2.45 -5.4,4.04 -8.05,4.77 -2.68,0.99 -5.93,1.51 -9.77,1.69 -3.84,0.18 -6.55,0.71 -8.27,1.59 -1.65,0.83 -2.67,2.52 -2.92,4.96 -0.32,7.86 1.8,17.83 6.43,29.91 4.56,12.01 11.88,28.44 21.87,49.31 10,20.8 16.95,35.44 20.71,43.86 3.83,8.42 6.11,16.01 7,22.71 -8.77,-2.12 -17.34,-6.02 -25.58,-11.77 -8.23,-5.74 -16.22,-12.47 -23.78,-20.19 -7.58,-7.71 -13.77,-14.4 -18.43,-20 -4.74,-5.67 -10.5,-12.74 -17.44,-21.3 -2.38,-6.54 -7.46,-18.16 -15.19,-35.07 -7.75,-16.85 -18.09,-36.53 -31.12,-58.98 -4.52,-0.11 -7.83,0.35 -9.82,1.42 -2.05,1.01 -3.79,2.76 -5.34,5.1 -1.49,2.35 -2.91,4.1 -4.27,5.19 -2.41,1.4 -5.47,2.45 -9.21,3.16 -3.75,0.77 -6.57,1.7 -8.4,2.84 -1.91,1.09 -2.96,3.05 -3.25,5.88 1.29,2.75 4.67,10.16 10.24,22.33 5.57,12.1 10.61,23.19 15.21,33.29 4.68,10.09 9.5,20.38 14.69,30.82 5.11,10.43 9.41,18.93 12.79,25.63 12.64,27.86 20.5,45.11 23.72,51.8 3.24,6.62 5.73,11.37 7.62,14.25 1.02,1.49 2.2,2.18 3.45,2.2 1.94,0.05 4.87,-1.14 8.62,-3.57 3.84,-2.49 6.38,-3.68 7.62,-3.66 1.63,0.18 4.43,0.97 8.43,2.32 4,1.34 6.97,2.01 8.92,2.05 2.57,0.07 4.5,-0.55 5.72,-1.78 -0.92,-4.85 -2.17,-8.72 -3.74,-11.72 -1.64,-3.02 -4.41,-8.04 -8.46,-15.15 4.21,2.42 8.92,5.24 14.28,8.53 5.28,3.3 10.52,6.27 15.72,8.9 5.27,2.63 10.6,4.74 15.98,6.32 5.37,1.65 10.67,2.49 15.81,2.62 8.87,0.2 17.68,-2.11 26.51,-6.93 10.21,-6.11 15.95,-15.04 17.12,-26.71 1.78,-17.68 -7,-44.4 -26.41,-80.24 -7.89,-14.53 -13.8,-26.37 -17.94,-35.59 -4.07,-9.15 -7.45,-16.71 -9.97,-22.58 -2.53,-5.88 -6.33,-13.11 -11.39,-21.76 z m 245,218.82 c -0.3,-0.01 8.06,0.52 24.96,1.64 16.97,1.12 30.22,1.95 39.76,2.57 -0.02,-1.32 -0.03,-2.84 -0.09,-4.56 -0.06,-1.72 -0.7,-3.86 -1.95,-6.27 -1.16,-2.4 -2.9,-4.43 -5.16,-6 -1.43,-1.36 -2.05,-2.89 -1.87,-4.67 0.26,-1.05 0.51,-1.97 0.67,-2.83 0.16,-0.86 0.27,-1.91 0.39,-3.16 0.21,-2.05 -0.37,-3.98 -1.92,-5.67 -16.06,-0.9 -30.67,-2.17 -43.92,-3.86 -13.25,-1.63 -22.48,-2.97 -27.68,-4.02 -1.96,-3.75 -5.46,-10.84 -10.58,-21.14 -5.12,-10.37 -11.86,-24.02 -20.29,-41.01 -8.45,-16.92 -17.42,-35.44 -26.88,-55.44 -9.46,-19.93 -20.44,-43.39 -32.79,-70.26 -1.74,-0.57 -3.03,-0.87 -3.81,-0.89 -3.19,-0.07 -6.04,1.06 -8.69,3.38 -2.57,2.32 -5.13,5.3 -7.59,8.81 -2.47,3.58 -4.08,5.66 -4.77,6.31 -1.34,1.62 -5.15,2.39 -11.38,2.25 -6.23,-0.15 -9.95,1.22 -11.17,4.04 5.76,14.08 11.28,26.64 16.63,37.74 5.36,11.1 11.5,23.02 18.34,35.67 6.91,12.73 14.11,25.66 21.59,38.86 7.49,13.2 16.58,29.88 27.19,50.03 -1.72,-0.04 -20.56,-1.94 -56.53,-5.74 -4.27,-0.1 -6.44,0.51 -6.57,1.76 -0.07,0.66 0.9,2.73 2.89,6.15 1.99,3.49 2.86,6.42 2.63,8.73 -0.46,0.78 -1.72,2.41 -3.7,5 -1.91,2.67 -2.94,4.43 -3.05,5.49 -0.21,2.17 0.8,4.44 2.98,6.88 14.61,2.78 28.86,4.63 42.73,5.62 13.86,0.98 26.75,2.34 38.73,4.2 1.21,1.95 2.59,4.49 4.3,7.64 1.64,3.15 4.67,8.64 9.19,16.48 4.43,7.84 7.56,13.2 9.23,16.09 3.7,5.77 7.7,12.61 12.05,20.51 4.42,7.97 7.65,13.87 9.67,17.82 3.51,1.6 7.6,2.82 12.44,3.52 4.76,0.78 7.75,1.31 8.97,1.6 4.59,0.11 9.16,-0.38 13.73,-1.53 4.63,-1.09 7.92,-2.79 10.02,-5.06 -2.7,-5.02 -6.42,-12.12 -11.11,-21.42 -4.68,-9.3 -9.48,-18.86 -14.33,-28.83 -4.86,-9.9 -9.28,-18.73 -13.26,-26.43 z m -8.69,-191.91 c -3.55,5.08 -5.73,11.18 -6.45,18.37 -1.45,14.38 2.58,31.74 12.17,51.93 9.51,20.26 20.91,39.43 34.06,57.65 13.23,18.17 26.16,34.67 38.8,49.31 1.79,0.84 3.61,1.28 5.64,1.32 2.56,0.07 5.58,-0.46 9.13,-1.64 3.55,-1.17 5.88,-1.84 6.99,-1.95 1.47,0.04 4,0.5 7.58,1.37 3.58,0.87 6.27,1.33 8.13,1.38 3.19,0.07 5.51,-1.2 7.01,-3.74 -17.11,-26.85 -30.31,-47.66 -39.52,-62.29 -9.29,-14.69 -16.85,-27.17 -22.75,-37.49 -5.91,-10.26 -10.28,-18.82 -13.09,-25.76 -2.81,-6.88 -3.97,-12.46 -3.54,-16.75 0.28,-2.71 1.29,-5.06 2.98,-7.07 10.22,1.49 20.71,6.56 31.55,15.15 10.75,8.58 24.48,23.32 41.19,44.14 16.78,20.82 38.24,50.22 64.61,88.12 1.78,2.49 4.3,3.8 7.65,3.88 2.25,0.05 5.51,-0.53 9.85,-1.75 4.33,-1.23 7.51,-1.81 9.69,-1.76 2.1,0.05 4.97,1.04 8.44,2.98 3.55,1.93 6.33,2.92 8.28,2.96 2.33,0.06 4.54,-0.89 6.68,-2.75 l -84.24,-198.62 c -3.5,-0.08 -5.87,0.26 -7.28,1.01 -1.32,0.7 -2.84,1.93 -4.34,3.68 -1.58,1.68 -2.95,2.9 -4.27,3.67 -1.17,0.76 -4.13,1.42 -9.03,2.1 -4.83,0.68 -7.37,1.88 -7.55,3.73 -0.64,6.33 0.14,13.36 2.32,21.08 2.18,7.79 3.47,12.84 3.85,15.3 -1.5,-0.63 -5.75,-4.17 -12.75,-10.55 -7.08,-6.38 -13.98,-12.29 -20.76,-17.67 -6.8,-5.38 -14.8,-10.33 -24,-14.98 -9.22,-4.57 -18.18,-6.96 -26.82,-7.16 -15.49,-0.36 -28.9,7.26 -40.21,22.8 z M 2455.19,1442 c 2.64,0.86 6.51,1.94 11.68,3.25 5.1,1.31 9.94,2.02 14.53,2.12 3.66,0.09 6.28,-0.38 7.94,-1.33 -1.84,-6.53 -4.41,-13.53 -7.72,-20.95 -3.39,-7.41 -10.07,-21.66 -19.98,-42.65 -9.98,-20.93 -18.04,-38.45 -24.35,-52.48 -6.24,-14.03 -12.29,-28.32 -17.93,-42.73 4.14,2.27 11.07,6.27 20.78,11.98 9.73,5.72 19.43,11.63 29.03,17.81 11.3,7.07 21.94,13.8 31.9,20.18 9.97,6.31 17.37,11.11 22.2,14.33 2.27,-0.87 3.55,-3.49 3.98,-7.84 0.36,-3.49 0.38,-6.8 0.06,-9.92 0.09,-0.86 1.64,-2.34 4.5,-4.39 2.87,-2.12 5.8,-4.1 8.72,-6.01 2.92,-1.92 5.36,-3.65 7.23,-5.19 1.94,-1.48 2.95,-2.91 3.07,-4.16 -16.72,-8.26 -29.47,-14.9 -38.31,-20 -8.86,-5.04 -32.29,-18.67 -70.08,-40.84 4.22,-3.14 11.25,-8.67 20.94,-16.58 9.76,-7.9 21.92,-18.6 36.54,-32.15 14.62,-13.54 26.47,-25.84 35.69,-36.86 -0.32,-1.46 -6.08,-2.33 -17.35,-2.72 -11.2,-0.39 -18.69,-1.1 -22.41,-2.11 -0.76,-0.28 -2.99,-2.05 -6.87,-5.44 -3.86,-3.4 -7.75,-5.15 -11.72,-5.24 -6.69,7.58 -14.77,16.59 -24.15,26.88 -9.47,10.3 -16.72,18.06 -21.84,23.24 -5.05,5.17 -10.27,10.54 -15.66,16.03 -5.31,5.5 -10.11,10.55 -14.39,15.08 l -40.09,-90.67 c -2.89,-0.07 -5.3,0.67 -7.41,2.28 -2.03,1.53 -4.43,3.73 -7.14,6.58 -2.78,2.84 -4.91,4.64 -6.55,5.4 -1.55,0.69 -4.46,1.68 -8.63,2.77 -4.09,1.17 -7.5,2.47 -10.06,3.94 -2.57,1.52 -4.09,3.41 -4.48,5.71 2.59,6.01 6.82,15.97 12.67,29.92 5.85,13.96 12.63,30.25 20.44,48.81 7.8,18.63 13.78,32.79 17.88,42.48 4.17,9.75 7.43,17.63 9.87,23.57 0.31,0.01 -0.28,-1.06 -1.69,-3.28 -1.16,-2.41 -1.86,-4.01 -2.24,-4.94 -0.38,-0.88 -0.63,-1.54 -0.74,-1.94 -0.03,0.26 2.9,7.67 8.84,22.23 5.95,14.55 10.91,26.5 14.81,35.85 3.96,9.42 10,23.84 18.19,43.27 8.18,19.43 13.38,32.06 15.69,37.8 1.77,1.03 3.74,1.6 6,1.66 2.02,0.04 5.11,-0.41 9.34,-1.37 4.15,-0.97 7.32,-1.42 9.27,-1.38 z m 332.17,-277.63 c -3.81,-0.09 -7.05,1.09 -9.72,3.55 -2.66,2.45 -5.4,4.03 -8.05,4.77 -2.67,0.99 -5.92,1.51 -9.76,1.69 -3.84,0.17 -6.55,0.71 -8.28,1.59 -1.64,0.82 -2.67,2.52 -2.91,4.96 -0.33,7.86 1.79,17.83 6.43,29.91 4.56,12 11.88,28.44 21.87,49.3 10,20.8 16.95,35.45 20.7,43.86 3.84,8.43 6.12,16.02 7,22.72 -8.75,-2.12 -17.34,-6.02 -25.57,-11.77 -8.23,-5.75 -16.22,-12.48 -23.79,-20.19 -7.57,-7.71 -13.76,-14.41 -18.43,-20.01 -4.73,-5.66 -10.49,-12.73 -17.43,-21.3 -2.38,-6.53 -7.46,-18.16 -15.19,-35.07 -7.75,-16.84 -18.09,-36.52 -31.12,-58.98 -4.52,-0.1 -7.84,0.35 -9.82,1.43 -2.05,1.01 -3.79,2.76 -5.35,5.1 -1.48,2.34 -2.9,4.1 -4.27,5.19 -2.4,1.4 -5.47,2.45 -9.21,3.16 -3.74,0.77 -6.57,1.7 -8.39,2.85 -1.91,1.08 -2.96,3.03 -3.25,5.87 1.28,2.74 4.67,10.16 10.24,22.32 5.57,12.11 10.61,23.2 15.21,33.29 4.68,10.1 9.5,20.39 14.69,30.83 5.11,10.44 9.4,18.93 12.79,25.63 12.64,27.86 20.5,45.11 23.72,51.79 3.23,6.62 5.73,11.38 7.62,14.27 1.02,1.47 2.2,2.16 3.44,2.19 1.95,0.05 4.88,-1.14 8.63,-3.57 3.84,-2.49 6.38,-3.69 7.62,-3.66 1.62,0.18 4.43,0.96 8.43,2.31 4,1.35 6.97,2.02 8.92,2.06 2.57,0.06 4.5,-0.55 5.72,-1.78 -0.92,-4.85 -2.17,-8.72 -3.74,-11.73 -1.64,-3.01 -4.41,-8.03 -8.46,-15.14 4.21,2.41 8.92,5.23 14.28,8.53 5.28,3.3 10.52,6.27 15.72,8.9 5.27,2.63 10.6,4.74 15.98,6.32 5.37,1.65 10.67,2.49 15.8,2.62 8.88,0.2 17.69,-2.11 26.52,-6.93 10.21,-6.11 15.94,-15.04 17.12,-26.71 1.78,-17.68 -7,-44.41 -26.4,-80.24 -7.9,-14.53 -13.81,-26.37 -17.95,-35.59 -4.08,-9.16 -7.45,-16.71 -9.97,-22.58 -2.54,-5.88 -6.34,-13.11 -11.39,-21.76 z m 77.89,20.52 c -6.09,7 -9.65,16.11 -10.79,27.46 -1.49,14.71 1.11,30.78 7.7,48.19 6.68,17.35 16.8,33.85 30.6,49.44 13.72,15.53 30.99,28.43 51.72,38.7 20.74,10.2 43.83,15.63 69.2,16.21 14.48,-0.45 26.54,-4.73 36.02,-12.91 9.48,-8.18 14.84,-17.98 15.99,-29.46 0.91,-9.03 -1.03,-17.68 -5.81,-25.91 -8.15,-12.83 -22.25,-23.87 -42.15,-33.13 -13.03,-6.98 -30.22,-13.66 -51.73,-20.04 -21.43,-6.39 -41.49,-10.22 -60.23,-11.58 -1.96,-8.44 -2.74,-13.89 -2.49,-16.33 0.65,-6.46 5.27,-11.25 14.01,-14.42 3.78,-1.17 9.14,-1.7 16.15,-1.54 15.79,0.37 32.21,4.65 49.18,12.78 17.05,8.13 29.41,19.4 37.32,33.79 1.42,-0.89 2.54,-5.03 3.27,-12.35 0.39,-0.79 2.43,-2.39 6.11,-4.82 3.67,-2.43 5.56,-4.17 5.67,-5.22 -2.56,-11.04 -9.49,-21.18 -20.81,-30.44 -11.39,-9.26 -25.23,-16.72 -41.66,-22.46 -16.43,-5.74 -32.34,-8.82 -47.83,-9.18 -28.87,-0.67 -48.68,7.08 -59.44,23.22 z m 154.6,136.57 c -3.37,3.3 -9.3,4.81 -17.78,4.61 -5.68,-0.12 -12.12,-1.27 -19.3,-3.55 -15.3,-5.38 -28.28,-12.03 -38.93,-20.08 -10.59,-7.98 -20.07,-18.45 -28.36,-31.41 4.98,0.85 14.9,3.12 29.82,6.78 15,3.65 25.88,6.42 32.61,8.42 14.47,5.1 25.64,10.39 33.52,15.79 7.88,5.41 11.69,10.26 11.24,14.68 -0.13,1.25 -1.07,2.89 -2.82,4.76" /><path
         id="path18"
         style="fill:#ed1c24;fill-opacity:1;fill-rule:nonzero;stroke:none"
         d="m 3261.26,1367.47 c 2.56,0.06 6.41,0.61 11.38,1.65 5.04,1.04 8.65,1.59 10.91,1.65 2.49,0.05 4.33,-0.43 5.68,-1.39 -1.55,-4.73 -8.48,-20.37 -20.78,-47.04 -12.38,-26.61 -24.26,-51.94 -35.73,-75.88 -11.47,-24.01 -18.41,-38 -20.97,-42.09 -3.14,-6.02 -8.75,-18.38 -16.7,-37.08 -7.95,-18.7 -13.91,-32.33 -17.88,-40.89 -3.9,-8.56 -9.23,-18.4 -15.83,-29.53 -6.68,-11.13 -12.86,-18.75 -18.55,-22.71 -6.56,-4.59 -14.58,-6.96 -24,-7.18 -10.2,-0.23 -20.88,2.1 -32.06,6.93 -11.17,4.84 -20.54,11.1 -28.17,18.72 -7.63,7.63 -11.81,15.07 -12.54,22.33 -0.77,7.59 2.34,13.88 9.34,18.8 3.11,0.87 6.18,1.33 9.3,1.4 8.79,0.21 16.66,-2.85 23.47,-9.24 6.88,-6.38 13.37,-15.1 19.56,-26.19 11.65,14.48 22.03,32.25 31.21,53.42 4.06,9.29 8.06,17.58 11.78,24.88 3.78,7.29 8.25,16.39 13.4,27.22 -9.45,-10.67 -20.4,-19.78 -32.75,-27.21 -12.43,-7.5 -24.37,-11.34 -35.74,-11.61 -5.52,-0.13 -10.84,0.8 -16.04,2.8 -5.12,2.07 -9.9,5.4 -14.26,10.06 -4.38,4.72 -8.2,10.85 -11.37,18.38 -0.9,8.9 0.26,20.64 3.56,35.13 3.22,14.56 10.04,30.45 20.25,47.55 10.29,17.17 25.62,33.86 46.06,50.14 20.52,16.21 46.55,29.58 78.12,39.96 5.36,0.13 12.18,-0.17 20.45,-0.97 8.35,-0.8 13.24,-2.8 14.59,-6.14 0.31,0 1.57,1.36 3.81,3.98 2.31,2.64 4.11,4.86 5.42,6.54 3.2,0.08 6.18,-0.91 9.04,-2.96 2.78,-2.05 4.77,-3.19 6.04,-3.43 z m -68.44,-39.28 c -11.29,-4.1 -24.47,-12.6 -39.4,-25.52 -14.93,-12.84 -27.56,-26.88 -37.88,-42.14 -10.41,-15.19 -15.04,-28.05 -14,-38.48 0.46,-4.49 1.92,-8.15 4.3,-10.94 6.54,0.15 16.11,5 28.58,14.48 12.54,9.55 25.91,21.57 40.05,36.11 14.14,14.55 25.57,28.04 34.24,40.41 8.65,12.43 12.65,21.59 12.05,27.52 -0.18,1.78 -0.63,3.16 -1.26,4.01 -1.36,1.02 -3.27,1.51 -5.92,1.45 -2.1,-0.05 -4.4,-0.5 -6.82,-1.22 -2.42,-0.78 -5.27,-1.91 -8.56,-3.31 -3.29,-1.46 -5.09,-2.23 -5.38,-2.37 z m 76.43,-133.92 c -6.09,7 -9.65,16.11 -10.8,27.45 -1.48,14.72 1.12,30.78 7.71,48.19 6.68,17.35 16.8,33.85 30.6,49.45 13.72,15.53 30.99,28.43 51.72,38.69 20.74,10.21 43.83,15.64 69.2,16.23 14.48,-0.46 26.53,-4.74 36.02,-12.92 9.48,-8.18 14.84,-17.98 15.99,-29.46 0.91,-9.04 -1.03,-17.68 -5.81,-25.92 -8.16,-12.82 -22.26,-23.86 -42.15,-33.12 -13.03,-6.98 -30.22,-13.66 -51.73,-20.05 -21.44,-6.38 -41.49,-10.22 -60.23,-11.58 -1.96,-8.44 -2.74,-13.88 -2.49,-16.32 0.65,-6.46 5.26,-11.25 14.01,-14.42 3.78,-1.17 9.14,-1.71 16.14,-1.54 15.8,0.36 32.22,4.64 49.19,12.77 17.04,8.14 29.41,19.4 37.32,33.8 1.42,-0.89 2.53,-5.03 3.27,-12.36 0.39,-0.78 2.43,-2.38 6.1,-4.81 3.68,-2.43 5.57,-4.17 5.67,-5.23 -2.55,-11.04 -9.48,-21.18 -20.8,-30.44 -11.39,-9.25 -25.23,-16.72 -41.66,-22.45 -16.43,-5.74 -32.34,-8.82 -47.83,-9.18 -28.87,-0.67 -48.69,7.07 -59.44,23.22 z m 154.6,136.57 c -3.37,3.29 -9.3,4.81 -17.78,4.61 -5.69,-0.13 -12.12,-1.27 -19.3,-3.55 -15.3,-5.38 -28.28,-12.03 -38.93,-20.08 -10.59,-7.99 -20.07,-18.46 -28.36,-31.41 4.98,0.84 14.9,3.12 29.82,6.77 15,3.66 25.87,6.43 32.61,8.43 14.47,5.1 25.64,10.39 33.52,15.79 7.88,5.4 11.68,10.26 11.24,14.67 -0.13,1.26 -1.07,2.89 -2.82,4.77 z m 140.22,12.78 c 8.18,7.13 20.73,15.68 37.84,25.54 17.02,9.91 30.25,16.38 39.54,19.43 3.14,-0.98 5.46,-2.25 6.86,-3.8 1.48,-1.56 2.69,-3.45 3.53,-5.61 0.92,-2.16 2.12,-4.84 3.46,-8.05 0.74,-1.17 2.39,-2.79 4.86,-4.92 2.48,-2.12 4.29,-3.87 5.44,-5.16 1.15,-1.36 1.75,-2.67 1.88,-3.92 0.15,-1.59 -0.04,-2.72 -0.59,-3.52 -25.26,-10.91 -44.38,-19.41 -57.41,-25.61 -13.03,-6.18 -24.83,-12.94 -35.32,-20.26 -10.58,-7.32 -18.94,-14.98 -25.15,-23 -9.16,-15.16 -24.17,-50.55 -45.18,-106.06 -5.97,0.39 -10.89,2 -14.76,4.89 -3.88,2.88 -6.47,5.27 -7.9,7.15 -1.53,1.22 -4.29,2.35 -8.45,3.31 -4.15,0.9 -6.71,1.56 -7.61,2.01 -0.98,0.44 -1.57,1.61 -1.76,3.53 1.44,6.64 4.32,17.49 8.58,32.6 4.32,15.11 10.27,32.77 17.98,53.05 6.07,15.62 13.89,34.12 23.36,55.49 9.55,21.32 14.48,32.02 14.95,32.03 2.04,1.44 4.3,2.21 6.87,2.27 2.33,0.06 4.75,0.12 7.4,0.11 2.73,0 5.86,-0.06 9.53,-0.11 1.37,0.3 4.26,1.82 8.81,4.64 4.49,2.74 8.48,4.16 11.82,4.24 2.57,0.06 5.12,-0.48 7.65,-1.54 -4.12,-8.63 -9.53,-21.58 -16.23,-38.73 z m 173.75,54.02 c -4.61,4.66 -7.23,10.55 -7.94,17.61 -0.79,7.84 0.96,15.29 5.26,22.2 4.36,6.98 10.28,11.75 17.74,14.37 l 7.39,0.97 c 12.95,-1.56 19.93,-7.28 20.94,-17.37 0.54,-5.42 -0.82,-11.2 -4.1,-17.36 -3.21,-6.09 -7.67,-11.35 -13.33,-15.58 -5.66,-4.3 -11.29,-6.48 -16.89,-6.61 -2.88,-0.07 -5.9,0.52 -9.07,1.77 z m -23.32,-122.48 c -3.79,-9.74 -6.6,-17.41 -8.62,-22.88 -1.95,-5.47 -4.44,-12.54 -7.47,-21.14 -2.95,-8.66 -6.21,-17.4 -9.7,-26.08 -3.41,-8.74 -6.55,-16.35 -9.26,-22.7 -2.05,-0.57 -3.5,-0.87 -4.2,-0.89 -4.13,-0.09 -8.79,1.25 -14.07,4.1 -5.2,2.86 -9.54,5.73 -13.04,8.63 -12.24,4.61 -18.64,10.08 -19.28,16.41 10.35,22.73 23.82,50.09 40.42,82.08 5.74,11.11 12.25,23.23 19.44,36.3 7.18,13.12 12.97,23.04 17.36,29.76 4.31,6.78 7.35,10.68 9.05,11.71 1.31,0.83 2.91,1.27 4.7,1.31 1.63,0.03 4.01,-0.38 6.98,-1.17 2.97,-0.85 5.2,-1.26 6.77,-1.36 1.79,0.04 4.3,0.63 7.55,1.76 3.23,1.2 5.9,1.79 8.08,1.84 2.41,0.06 4.46,-0.89 6.2,-2.76 -1.98,-4.28 -5.56,-12.17 -10.65,-23.6 -5.09,-11.42 -10.66,-24.31 -16.78,-38.74 -6.11,-14.42 -10.56,-25.24 -13.48,-32.58" /><path
         id="path20"
         style="fill:#ed1c24;fill-opacity:1;fill-rule:evenodd;stroke:none"
         d="M 947.699,922.031 C 1587.26,1058.83 2246.64,1105.07 2919.97,1087.48 2287.28,1063.75 1657.21,1009.79 1034.18,875.027 l -86.481,47.004" /></g></g></svg>